<svg xmlns="http://www.w3.org/2000/svg" width="399" height="360">
<path d="M87.73 334.388c74.423 48.143 217.613 31.23 310.95-76.72-37.855 29.313-71.46 43.126-107.565 55.94-11.9-22.892-23.55-57.892-28.199-92.534-3.983 93.299-79.703 148.016-175.186 113.314zM180 0C80.589 0 0 80.589 0 180a180 180 0 0 0 69.918 142.412A147.5 147.5 0 0 1 29.861 221.36c0-81.462 66.038-147.5 147.5-147.5s147.5 66.038 147.5 147.5a147.5 147.5 0 0 1-53.773 113.891C326.166 302.935 359.999 243.858 360 180 360 80.589 279.411 0 180 0Zm24.443 121.553c-51.914 0-97.73 33.93-112.87 83.588a115 115 0 0 1 86.72-39.471c63.513 0 115 51.487 115 115a115 115 0 0 1-9.83 46.516 118 118 0 0 0 38.98-87.633c0-65.17-52.83-118-118-118z"/>
</svg>